<svg width="48" height="48" viewBox="0 0 48 48" fill="none" xmlns="http://www.w3.org/2000/svg">
<path d="M29.1727 20.1225C29.1727 19.0993 28.8693 18.0991 28.3008 17.2484C27.7324 16.3976 26.9244 15.7345 25.9792 15.343C25.0339 14.9514 23.9937 14.849 22.9902 15.0486C21.9867 15.2482 21.0649 15.7409 20.3414 16.4644C19.6179 17.1879 19.1252 18.1097 18.9256 19.1132C18.726 20.1167 18.8284 21.1569 19.22 22.1022C19.6115 23.0475 20.2746 23.8554 21.1253 24.4239C21.9761 24.9923 22.9763 25.2957 23.9994 25.2957C25.3715 25.2957 26.6873 24.7507 27.6575 23.7805C28.6277 22.8104 29.1727 21.4945 29.1727 20.1225ZM21.4189 20.1225C21.4189 19.6121 21.5702 19.1132 21.8538 18.6888C22.1373 18.2644 22.5403 17.9336 23.0119 17.7383C23.4834 17.543 24.0023 17.4919 24.5029 17.5915C25.0035 17.6911 25.4633 17.9368 25.8242 18.2977C26.1851 18.6586 26.4309 19.1184 26.5304 19.619C26.63 20.1196 26.5789 20.6385 26.3836 21.11C26.1883 21.5816 25.8575 21.9846 25.4331 22.2681C25.0087 22.5517 24.5098 22.703 23.9994 22.703C23.316 22.6999 22.6615 22.427 22.1782 21.9437C21.6949 21.4604 21.422 20.8059 21.4189 20.1225Z" fill="#4ACAE7"/>
<path d="M17.6877 29.3678C17.5998 29.5188 17.5434 29.6859 17.5217 29.8592C17.5001 30.0325 17.5137 30.2084 17.5617 30.3763C17.6097 30.5443 17.6911 30.7008 17.8011 30.8364C17.9111 30.9721 18.0474 31.0841 18.2018 31.1658C18.3562 31.2475 18.5255 31.2971 18.6995 31.3117C18.8736 31.3264 19.0488 31.3057 19.2146 31.2509C19.3804 31.1961 19.5335 31.1084 19.6646 30.993C19.7957 30.8776 19.9021 30.7369 19.9775 30.5793C20.1939 30.1588 20.5222 29.8062 20.9263 29.5603C21.3303 29.3145 21.7944 29.185 22.2673 29.1861H25.7202C26.1931 29.185 26.6572 29.3145 27.0613 29.5603C27.4653 29.8062 27.7936 30.1588 28.01 30.5793C28.1701 30.882 28.4424 31.1099 28.7685 31.2141C29.0947 31.3183 29.4487 31.2905 29.7546 31.1367C30.0596 30.979 30.2896 30.7067 30.3941 30.3796C30.4986 30.0525 30.469 29.6974 30.3119 29.392C29.8771 28.55 29.2183 27.8443 28.4082 27.3526C27.598 26.861 26.6679 26.6024 25.7202 26.6055H22.2673C21.3242 26.6024 20.3983 26.8583 19.5907 27.3454C18.7831 27.8326 18.1249 28.5321 17.6877 29.3678Z" fill="#4ACAE7"/>
<path d="M38.2108 33.0505C37.293 33.0546 36.3932 33.3057 35.606 33.7774L34.0067 32.1782C35.4126 30.4588 36.3518 28.4063 36.7338 26.2184C37.1158 24.0306 36.9276 21.7812 36.1875 19.6872C36.1486 19.5071 36.0718 19.3373 35.9622 19.1891C35.8525 19.041 35.7126 18.918 35.5516 18.8282C35.3906 18.7385 35.2124 18.6841 35.0287 18.6686C34.8451 18.6532 34.6603 18.6771 34.4866 18.7388C34.3129 18.8005 34.1544 18.8984 34.0216 19.0262C33.8887 19.154 33.7847 19.3086 33.7164 19.4797C33.648 19.6509 33.6169 19.8346 33.6252 20.0187C33.6335 20.2029 33.681 20.3831 33.7644 20.5474C34.3997 22.3883 34.5024 24.3712 34.0609 26.2679C33.6194 28.1647 32.6516 29.8983 31.2686 31.2695C29.3338 33.1843 26.7216 34.2583 23.9994 34.2583C21.2773 34.2583 18.6651 33.1843 16.7302 31.2695C16.6097 31.1479 16.4662 31.0514 16.3082 30.9855C16.1502 30.9196 15.9806 30.8857 15.8094 30.8857C15.6382 30.8857 15.4687 30.9196 15.3106 30.9855C15.1526 31.0514 15.0092 31.1479 14.8886 31.2695L12.4656 33.6926C11.6783 33.2209 10.7785 32.9698 9.86077 32.9657C8.83759 32.9657 7.8374 33.2691 6.98666 33.8375C6.13592 34.406 5.47284 35.2139 5.08129 36.1592C4.68974 37.1045 4.58729 38.1447 4.7869 39.1482C4.98652 40.1517 5.47922 41.0735 6.20272 41.797C6.92621 42.5205 7.848 43.0132 8.85152 43.2128C9.85503 43.4124 10.8952 43.31 11.8405 42.9184C12.7858 42.5269 13.5937 41.8638 14.1622 41.0131C14.7306 40.1623 15.034 39.1621 15.034 38.1389C15.0299 37.2212 14.7788 36.3214 14.3071 35.5341L15.9063 33.9349C18.2137 35.8226 21.1031 36.8539 24.0842 36.8539C27.0654 36.8539 29.9547 35.8226 32.2621 33.9349L33.8613 35.5341C33.3896 36.3214 33.1385 37.2212 33.1344 38.1389C33.1344 39.1621 33.4378 40.1623 34.0063 41.0131C34.5747 41.8638 35.3827 42.5269 36.328 42.9184C37.2733 43.31 38.3134 43.4124 39.3169 43.2128C40.3205 43.0132 41.2422 42.5205 41.9657 41.797C42.6892 41.0735 43.1819 40.1517 43.3816 39.1482C43.5812 38.1447 43.4787 37.1045 43.0872 36.1592C42.6956 35.2139 42.0325 34.406 41.1818 33.8375C40.3311 33.2691 39.3309 32.9657 38.3077 32.9657L38.2108 33.0505ZM9.78808 40.8043C9.27821 40.8043 8.77976 40.6533 8.35565 40.3702C7.93155 40.0872 7.60079 39.6849 7.40512 39.2141C7.20945 38.7432 7.15764 38.225 7.25624 37.7247C7.35483 37.2245 7.59941 36.7647 7.95909 36.4033C8.31878 36.0419 8.77746 35.7952 9.27725 35.6942C9.77703 35.5933 10.2955 35.6427 10.7672 35.8361C11.239 36.0296 11.6429 36.3585 11.9279 36.7813C12.2129 37.204 12.3663 37.7018 12.3686 38.2116C12.3687 38.8972 12.0972 39.5548 11.6136 40.0407C11.1299 40.5265 10.4736 40.8011 9.78808 40.8043ZM38.2229 40.8043C37.7125 40.8043 37.2136 40.653 36.7892 40.3694C36.3648 40.0859 36.0341 39.6828 35.8387 39.2113C35.6434 38.7398 35.5923 38.2209 35.6919 37.7203C35.7915 37.2197 36.0372 36.7599 36.3981 36.399C36.759 36.0381 37.2188 35.7923 37.7194 35.6928C38.22 35.5932 38.7389 35.6443 39.2104 35.8396C39.682 36.0349 40.085 36.3657 40.3685 36.7901C40.6521 37.2144 40.8035 37.7134 40.8035 38.2237C40.8003 38.9093 40.5257 39.5656 40.0398 40.0492C39.5539 40.5328 38.8963 40.8043 38.2108 40.8043H38.2229Z" fill="#4ACAE7"/>
<path d="M9.78889 14.95C10.7067 14.9459 11.6064 14.6948 12.3937 14.2231L14.0051 15.8223C12.6002 17.5398 11.6615 19.5903 11.2796 21.776C10.8976 23.9617 11.0852 26.209 11.8243 28.3012C11.9421 28.6213 12.1802 28.8828 12.488 29.0299C12.7958 29.177 13.1489 29.1981 13.472 29.0887C13.6358 29.0365 13.7877 28.9523 13.9187 28.8409C14.0497 28.7295 14.1572 28.5932 14.235 28.4399C14.3128 28.2865 14.3593 28.1192 14.3718 27.9477C14.3844 27.7763 14.3626 27.604 14.3079 27.441C13.5824 25.2504 13.6108 22.88 14.3888 20.7075C15.1667 18.5349 16.6494 16.6853 18.6006 15.4533C20.5518 14.2212 22.8592 13.6777 25.1552 13.9092C27.4512 14.1408 29.6036 15.1341 31.2695 16.731C31.514 16.97 31.8423 17.1038 32.1842 17.1038C32.5261 17.1038 32.8544 16.97 33.0989 16.731L35.522 14.3079C36.3093 14.7796 37.209 15.0307 38.1268 15.0348C39.15 15.0348 40.1502 14.7314 41.0009 14.163C41.8516 13.5945 42.5147 12.7866 42.9063 11.8413C43.2978 10.896 43.4003 9.85584 43.2007 8.85232C43.001 7.84881 42.5083 6.92702 41.7848 6.20352C41.0613 5.48003 40.1396 4.98732 39.136 4.78771C38.1325 4.5881 37.0924 4.69055 36.1471 5.0821C35.2018 5.47365 34.3938 6.13672 33.8254 6.98746C33.2569 7.8382 32.9535 8.8384 32.9535 9.86158C32.9576 10.7793 33.2087 11.6791 33.6804 12.4663L32.1781 13.9929C29.8718 12.103 26.982 11.0703 24.0002 11.0703C21.0185 11.0703 18.1287 12.103 15.8224 13.9929L14.2231 12.3937C14.6948 11.6064 14.9459 10.7066 14.9501 9.78888C14.9525 8.76468 14.6508 7.76281 14.0833 6.91022C13.5157 6.05763 12.7079 5.39268 11.7621 4.99962C10.8163 4.60657 9.77514 4.5031 8.7705 4.70233C7.76586 4.90155 6.84296 5.39451 6.11874 6.11873C5.39451 6.84295 4.90156 7.76585 4.70233 8.7705C4.50311 9.77514 4.60658 10.8163 4.99963 11.7621C5.39268 12.7078 6.05763 13.5157 6.91023 14.0832C7.76282 14.6507 8.76469 14.9524 9.78889 14.95ZM38.2237 7.19619C38.7331 7.19859 39.2303 7.35167 39.6528 7.63614C40.0753 7.92062 40.4042 8.32377 40.598 8.79481C40.7918 9.26585 40.8419 9.78371 40.742 10.2831C40.642 10.7826 40.3965 11.2413 40.0363 11.6014C39.6761 11.9616 39.2174 12.2071 38.718 12.3071C38.2185 12.4071 37.7007 12.357 37.2296 12.1632C36.7586 11.9693 36.3554 11.6405 36.071 11.218C35.7865 10.7954 35.6334 10.2982 35.631 9.78888C35.631 9.10335 35.9025 8.44572 36.3861 7.95984C36.8697 7.47397 37.5261 7.1994 38.2116 7.19619H38.2237ZM9.78889 7.19619C10.2982 7.19859 10.7955 7.35167 11.218 7.63614C11.6405 7.92062 11.9694 8.32377 12.1632 8.79481C12.357 9.26585 12.4071 9.78371 12.3072 10.2831C12.2072 10.7826 11.9617 11.2413 11.6015 11.6014C11.2413 11.9616 10.7826 12.2071 10.2832 12.3071C9.78372 12.4071 9.26586 12.357 8.79481 12.1632C8.32377 11.9693 7.92062 11.6405 7.63615 11.218C7.35167 10.7954 7.19859 10.2982 7.1962 9.78888C7.1962 9.10126 7.46936 8.4418 7.95558 7.95557C8.4418 7.46935 9.10127 7.19619 9.78889 7.19619Z" fill="#4ACAE7"/>
</svg>
