<svg width="48" height="48" viewBox="0 0 48 48" fill="none" xmlns="http://www.w3.org/2000/svg">
<path d="M22.0508 23.1782C20.4236 23.1782 19.0977 21.8457 19.0977 20.2104V15.8116C19.0977 14.1763 20.416 12.8438 22.0508 12.8438C22.5481 12.8438 23.0378 12.9725 23.4747 13.2072L25.5239 14.2823C26.2622 14.6684 26.9929 15.047 27.6333 15.3952C29.0647 16.1826 29.592 17.9845 28.8085 19.423C28.5373 19.9227 28.1305 20.3314 27.6333 20.604C26.9929 20.9522 26.2622 21.3459 25.5239 21.7169L23.4747 22.792C23.0378 23.0418 22.5481 23.1782 22.0508 23.1782ZM22.0508 15.4255C21.8399 15.4255 21.6666 15.5997 21.6666 15.8116V20.2178C21.6666 20.4298 21.8399 20.604 22.0584 20.604C22.1187 20.604 22.1789 20.5888 22.2392 20.5585C22.8645 20.2178 25.78 18.6961 26.4128 18.3554C26.5936 18.257 26.669 18.0299 26.571 17.8482C26.5334 17.7801 26.4806 17.727 26.4128 17.6891C25.7875 17.3484 22.8795 15.8344 22.2392 15.4861C22.1789 15.4482 22.1111 15.4255 22.0508 15.4255Z" fill="#4ACAE7"/>
<path d="M37.1031 30.9314H11.3832C7.83489 30.9314 4.95703 28.0393 4.95703 24.4734V11.5498C4.95703 7.9839 7.83489 5.0918 11.3832 5.0918H37.1031C40.6515 5.0918 43.5293 7.9839 43.5293 11.5498V24.4734C43.5293 28.0393 40.6515 30.9314 37.1031 30.9314ZM11.3832 7.67349C9.25121 7.67349 7.52601 9.40724 7.52601 11.5498V24.4734C7.52601 26.616 9.25121 28.3497 11.3832 28.3497H37.1031C39.2351 28.3497 40.9604 26.616 40.9604 24.4734V11.5498C40.9604 9.40724 39.2351 7.67349 37.1031 7.67349H11.3832Z" fill="#4ACAE7"/>
<path d="M16.528 38.6834C15.8198 38.7515 15.187 38.2291 15.1192 37.5175C15.0514 36.8058 15.5712 36.1698 16.2794 36.1017C16.3623 36.0941 42.2404 36.1017 42.2404 36.1017C42.9485 36.0335 43.5813 36.5559 43.6491 37.2676C43.7169 37.9793 43.1971 38.6152 42.489 38.6834C42.4061 38.691 16.528 38.6834 16.528 38.6834Z" fill="#4ACAE7"/>
<path d="M34.5259 43.8552H16.528C15.8198 43.9234 15.187 43.401 15.1192 42.6893C15.0514 41.9776 15.5712 41.3417 16.2794 41.2735C16.3623 41.266 16.4451 41.266 16.528 41.2735H34.5259C35.2341 41.2054 35.8669 41.7278 35.9347 42.4395C36.0025 43.1511 35.4827 43.7871 34.7745 43.8552C34.6916 43.8628 34.6088 43.8628 34.5259 43.8552Z" fill="#4ACAE7"/>
<path d="M8.81426 43.8542C6.68224 43.8542 4.95703 42.1205 4.95703 39.9779C4.95703 37.8353 6.68224 36.1016 8.81426 36.1016C10.9463 36.1016 12.6715 37.8353 12.6715 39.9779C12.6715 42.1205 10.9463 43.8542 8.81426 43.8542ZM8.81426 38.6833C8.09856 38.6833 7.52601 39.2662 7.52601 39.9779C7.52601 40.6896 8.1061 41.2725 8.81426 41.2725C9.52242 41.2725 10.1025 40.6896 10.1025 39.9779C10.1025 39.2587 9.52996 38.6833 8.81426 38.6833Z" fill="#4ACAE7"/>
</svg>
