<svg width="48" height="48" viewBox="0 0 48 48" fill="none" xmlns="http://www.w3.org/2000/svg">
<path d="M22.3622 20.7957C22.3622 19.9374 22.0195 19.1143 21.4096 18.5074C20.7997 17.9005 19.9725 17.5595 19.1099 17.5595H17.8188C17.646 17.5595 17.4802 17.4912 17.358 17.3696C17.2358 17.248 17.1671 17.083 17.1671 16.911C17.1671 16.7391 17.2358 16.5741 17.358 16.4525C17.4802 16.3309 17.646 16.2626 17.8188 16.2626H20.8031C20.984 16.2801 21.1666 16.2597 21.3391 16.2027C21.5116 16.1458 21.6703 16.0536 21.8049 15.932C21.9395 15.8105 22.047 15.6622 22.1206 15.4969C22.1942 15.3315 22.2322 15.1526 22.2322 14.9717C22.2322 14.7909 22.1942 14.612 22.1206 14.4466C22.047 14.2812 21.9395 14.133 21.8049 14.0114C21.6703 13.8899 21.5116 13.7976 21.3391 13.7407C21.1666 13.6838 20.984 13.6634 20.8031 13.6809H19.7677V13.1233C19.7852 12.9433 19.7648 12.7616 19.7076 12.5899C19.6504 12.4182 19.5577 12.2604 19.4355 12.1264C19.3134 11.9925 19.1644 11.8855 18.9982 11.8123C18.832 11.739 18.6522 11.7012 18.4705 11.7012C18.2887 11.7012 18.1089 11.739 17.9427 11.8123C17.7765 11.8855 17.6276 11.9925 17.5054 12.1264C17.3832 12.2604 17.2906 12.4182 17.2334 12.5899C17.1761 12.7616 17.1557 12.9433 17.1732 13.1233V13.7051C16.3915 13.8726 15.6992 14.3207 15.2286 14.964C14.7579 15.6072 14.5419 16.4004 14.6217 17.1921C14.7016 17.9838 15.0718 18.7184 15.6615 19.2557C16.2512 19.793 17.0192 20.0953 17.8188 20.1048H19.1221C19.295 20.1048 19.4607 20.1732 19.5829 20.2948C19.7051 20.4164 19.7738 20.5813 19.7738 20.7533C19.7738 20.9253 19.7051 21.0902 19.5829 21.2118C19.4607 21.3334 19.295 21.4018 19.1221 21.4018H16.1257C15.9448 21.3843 15.7622 21.4047 15.5896 21.4616C15.4171 21.5185 15.2584 21.6107 15.1238 21.7323C14.9893 21.8539 14.8817 22.0021 14.8081 22.1675C14.7345 22.3329 14.6965 22.5117 14.6965 22.6926C14.6965 22.8735 14.7345 23.0524 14.8081 23.2177C14.8817 23.3831 14.9893 23.5314 15.1238 23.6529C15.2584 23.7745 15.4171 23.8667 15.5896 23.9236C15.7622 23.9805 15.9448 24.0009 16.1257 23.9835H17.161V24.4925C17.1923 24.8133 17.3425 25.111 17.5823 25.3276C17.8221 25.5442 18.1344 25.6642 18.4583 25.6642C18.7822 25.6642 19.0944 25.5442 19.3342 25.3276C19.5741 25.111 19.7242 24.8133 19.7555 24.4925V23.9107C20.4816 23.7645 21.1357 23.3761 21.6097 22.8096C22.0837 22.2432 22.3492 21.5327 22.3622 20.7957Z" fill="#4ACAE7"/>
<path d="M38.2833 25.5601L34.7509 24.6632V21.3179C34.7509 20.3214 34.3531 19.3657 33.6449 18.661C32.9368 17.9564 31.9763 17.5605 30.9749 17.5605C29.9734 17.5605 29.013 17.9564 28.3048 18.661C27.5967 19.3657 27.1989 20.3214 27.1989 21.3179V28.154L25.0429 27.4389C24.5255 27.2655 23.974 27.2173 23.4342 27.2983C22.8944 27.3794 22.3817 27.5873 21.9387 27.9048C21.4958 28.2224 21.1353 28.6404 20.8871 29.1243C20.6389 29.6082 20.5102 30.1439 20.5117 30.6872C20.5119 30.9844 20.5749 31.2783 20.6966 31.5498C20.8183 31.8212 20.996 32.0642 21.2181 32.2629L27.1989 37.6081V40.8443C27.2036 41.5309 27.4792 42.1882 27.9662 42.6746C28.442 43.1475 29.0844 43.4171 29.7568 43.426H40.5245C40.8679 43.4292 41.2084 43.3649 41.5267 43.2367C41.845 43.1086 42.1347 42.9191 42.3792 42.6792C42.6236 42.4393 42.8181 42.1537 42.9513 41.8388C43.0846 41.524 43.154 41.186 43.1556 40.8443V31.8265C43.1579 30.392 42.6803 28.9975 41.7981 27.8629C40.9159 26.7283 39.6793 25.9181 38.2833 25.5601ZM40.5611 40.8322H29.7568V37.0263C29.7565 36.846 29.7185 36.6677 29.6451 36.5028C29.5717 36.3379 29.4645 36.1901 29.3305 36.0688L23.1061 30.4933C23.1508 30.2931 23.2679 30.1162 23.435 29.9963C23.5427 29.919 23.6671 29.8678 23.7982 29.8467C23.9293 29.8257 24.0636 29.8354 24.1902 29.8751L28.0515 31.1599C28.2454 31.2225 28.4512 31.2389 28.6527 31.208C28.8541 31.177 29.0454 31.0995 29.2112 30.9816C29.377 30.8637 29.5128 30.7088 29.6075 30.5293C29.7023 30.3497 29.7534 30.1506 29.7568 29.9478V21.3179C29.8269 21.0611 29.98 20.8345 30.1924 20.6729C30.4049 20.5113 30.6648 20.4237 30.9322 20.4237C31.1996 20.4237 31.4596 20.5113 31.672 20.6729C31.8845 20.8345 32.0375 21.0611 32.1077 21.3179V25.6571C32.117 25.9367 32.2169 26.2058 32.3926 26.4242C32.5682 26.6427 32.8101 26.7987 33.0821 26.8692L37.589 28.0206C38.4283 28.2334 39.1724 28.7183 39.704 29.3987C40.2356 30.0791 40.5243 30.9162 40.5245 31.7781L40.5611 40.8322Z" fill="#4ACAE7"/>
<path d="M17.2943 30.4441C15.247 30.2382 13.2905 29.4983 11.6224 28.2992C9.95439 27.1002 8.63387 25.4843 7.79425 23.6149C6.95463 21.7454 6.62564 19.6886 6.84051 17.6522C7.05538 15.6157 7.8065 13.6718 9.01801 12.0166C10.2295 10.3615 11.8585 9.0538 13.7404 8.2256C15.6224 7.3974 17.6907 7.07805 19.7363 7.29979C21.782 7.52153 23.7327 8.27651 25.3913 9.48848C27.0499 10.7004 28.3577 12.3265 29.1827 14.2023C29.32 14.5238 29.58 14.7778 29.9055 14.9085C30.0667 14.9732 30.2391 15.0057 30.4129 15.0041C30.5867 15.0026 30.7585 14.9669 30.9184 14.8993C31.0784 14.8316 31.2234 14.7333 31.3451 14.6099C31.4669 14.4865 31.5631 14.3404 31.6281 14.18C31.6931 14.0196 31.7258 13.8481 31.7242 13.6751C31.7226 13.5022 31.6868 13.3313 31.6188 13.1721C30.6114 10.8823 29.0153 8.89738 26.9911 7.4172C24.967 5.93703 22.5865 5.01401 20.0896 4.7412C17.5927 4.46838 15.0676 4.85541 12.769 5.86327C10.4703 6.87113 8.47929 8.4642 6.99663 10.4818C5.51397 12.4995 4.59207 14.8705 4.32387 17.3557C4.05567 19.841 4.45064 22.3527 5.46898 24.6376C6.48732 26.9225 8.09303 28.8999 10.1242 30.3705C12.1554 31.841 14.5403 32.7527 17.0385 33.0136C17.2123 33.0285 17.3874 33.0089 17.5535 32.9558C17.7197 32.9027 17.8735 32.8173 18.0061 32.7045C18.1388 32.5917 18.2475 32.4538 18.3261 32.2988C18.4046 32.1438 18.4514 31.9748 18.4637 31.8016C18.481 31.4692 18.3693 31.1429 18.1517 30.8903C17.934 30.6376 17.627 30.4778 17.2943 30.4441Z" fill="#4ACAE7"/>
</svg>
