<svg width="48" height="48" viewBox="0 0 48 48" fill="none" xmlns="http://www.w3.org/2000/svg">
<path d="M23.5606 44.3083C23.1871 44.3064 22.8183 44.2278 22.4781 44.0775C22.1378 43.9272 21.8339 43.7086 21.5861 43.436L18.0717 39.5712C17.9471 39.4341 17.7942 39.3244 17.6229 39.2492C17.4517 39.174 17.2661 39.1351 17.0783 39.135H12.9678C10.5107 39.1318 8.15503 38.179 6.41643 36.485C4.67782 34.7911 3.69798 32.4941 3.69141 30.0969V14.5893C3.6947 12.19 4.67309 9.88989 6.41205 8.19334C8.15101 6.4968 10.5086 5.54227 12.9678 5.53906H34.1534C36.6127 5.54227 38.9702 6.4968 40.7092 8.19334C42.4482 9.88989 43.4266 12.19 43.4298 14.5893V30.0969C43.4266 32.4962 42.4482 34.7963 40.7092 36.4929C38.9702 38.1894 36.6127 39.1439 34.1534 39.1471C33.8247 39.116 33.5197 38.9667 33.2978 38.7281C33.0759 38.4896 32.9529 38.179 32.9529 37.8568C32.9529 37.5347 33.0759 37.2241 33.2978 36.9856C33.5197 36.747 33.8247 36.5977 34.1534 36.5666C35.9078 36.5634 37.5895 35.882 38.8301 34.6717C40.0706 33.4613 40.7691 31.8207 40.7723 30.1091V14.5893C40.7691 12.8776 40.0706 11.237 38.8301 10.0266C37.5895 8.81633 35.9078 8.13496 34.1534 8.13175H12.9678C11.2112 8.13175 9.52643 8.81171 8.28317 10.0224C7.0399 11.233 6.33979 12.8755 6.3365 14.5893V30.0969C6.33979 31.8107 7.0399 33.4532 8.28317 34.6638C9.52643 35.8745 11.2112 36.5544 12.9678 36.5544H17.0783C17.6387 36.5541 18.1929 36.6695 18.7044 36.8929C19.2159 37.1163 19.6732 37.4427 20.0462 37.8508L23.5606 41.7277L27.075 37.8629C27.3116 37.6162 27.6377 37.4694 27.9836 37.4538C28.3296 37.4381 28.6681 37.5549 28.9271 37.7792C29.1862 38.0034 29.3452 38.3175 29.3704 38.6545C29.3955 38.9915 29.2849 39.3247 29.0619 39.5833L25.5475 43.436C25.2983 43.7101 24.9924 43.9296 24.6499 44.0799C24.3074 44.2303 23.9362 44.3081 23.5606 44.3083Z" fill="#4ACAE7"/>
<path d="M34.2129 19.1001H23.5712C23.3859 19.1197 23.1989 19.0968 23.0222 19.033C22.8455 18.9692 22.683 18.8658 22.5451 18.7296C22.4073 18.5933 22.2971 18.4271 22.2217 18.2417C22.1464 18.0563 22.1074 17.8558 22.1074 17.653C22.1074 17.4503 22.1464 17.2498 22.2217 17.0644C22.2971 16.879 22.4073 16.7128 22.5451 16.5765C22.683 16.4403 22.8455 16.3369 23.0222 16.2731C23.1989 16.2093 23.3859 16.1864 23.5712 16.206H34.2129C34.3982 16.1864 34.5852 16.2093 34.7619 16.2731C34.9386 16.3369 35.1011 16.4403 35.2389 16.5765C35.3768 16.7128 35.4869 16.879 35.5623 17.0644C35.6377 17.2498 35.6766 17.4503 35.6766 17.653C35.6766 17.8558 35.6377 18.0563 35.5623 18.2417C35.4869 18.4271 35.3768 18.5933 35.2389 18.7296C35.1011 18.8658 34.9386 18.9692 34.7619 19.033C34.5852 19.0968 34.3982 19.1197 34.2129 19.1001Z" fill="#4ACAE7"/>
<path d="M34.2129 28.7935H23.5712C23.3859 28.8131 23.1989 28.7902 23.0222 28.7264C22.8455 28.6626 22.683 28.5592 22.5451 28.423C22.4073 28.2867 22.2971 28.1205 22.2217 27.9351C22.1464 27.7497 22.1074 27.5492 22.1074 27.3465C22.1074 27.1437 22.1464 26.9432 22.2217 26.7578C22.2971 26.5724 22.4073 26.4062 22.5451 26.2699C22.683 26.1337 22.8455 26.0303 23.0222 25.9665C23.1989 25.9027 23.3859 25.8798 23.5712 25.8994H34.2129C34.3982 25.8798 34.5852 25.9027 34.7619 25.9665C34.9386 26.0303 35.1011 26.1337 35.2389 26.2699C35.3768 26.4062 35.4869 26.5724 35.5623 26.7578C35.6377 26.9432 35.6766 27.1437 35.6766 27.3465C35.6766 27.5492 35.6377 27.7497 35.5623 27.9351C35.4869 28.1205 35.3768 28.2867 35.2389 28.423C35.1011 28.5592 34.9386 28.6626 34.7619 28.7264C34.5852 28.7902 34.3982 28.8131 34.2129 28.7935Z" fill="#4ACAE7"/>
<path d="M15.3242 21.0469C14.5574 21.0469 13.8079 20.8195 13.1703 20.3935C12.5327 19.9675 12.0358 19.362 11.7424 18.6536C11.449 17.9451 11.3722 17.1656 11.5218 16.4136C11.6714 15.6615 12.0406 14.9707 12.5828 14.4285C13.125 13.8863 13.8158 13.5171 14.5679 13.3675C15.3199 13.2179 16.0994 13.2947 16.8078 13.5881C17.5162 13.8816 18.1217 14.3785 18.5477 15.016C18.9737 15.6536 19.2011 16.4031 19.2011 17.1699C19.2011 18.1982 18.7927 19.1843 18.0656 19.9113C17.3385 20.6384 16.3524 21.0469 15.3242 21.0469ZM15.3242 15.8736C15.0678 15.8736 14.8172 15.9496 14.604 16.0921C14.3908 16.2345 14.2247 16.437 14.1265 16.6738C14.0284 16.9107 14.0027 17.1714 14.0528 17.4228C14.1028 17.6743 14.2262 17.9053 14.4075 18.0866C14.5888 18.2679 14.8198 18.3913 15.0713 18.4414C15.3228 18.4914 15.5834 18.4657 15.8203 18.3676C16.0572 18.2695 16.2596 18.1033 16.4021 17.8901C16.5445 17.677 16.6205 17.4263 16.6205 17.1699C16.6205 16.8261 16.484 16.4964 16.2409 16.2533C15.9977 16.0102 15.668 15.8736 15.3242 15.8736Z" fill="#4ACAE7"/>
<path d="M15.3242 31.707C14.5574 31.707 13.8079 31.4796 13.1703 31.0536C12.5327 30.6276 12.0358 30.0221 11.7424 29.3137C11.449 28.6053 11.3722 27.8258 11.5218 27.0737C11.6714 26.3217 12.0406 25.6309 12.5828 25.0887C13.125 24.5465 13.8158 24.1772 14.5679 24.0276C15.3199 23.878 16.0994 23.9548 16.8078 24.2483C17.5162 24.5417 18.1217 25.0386 18.5477 25.6762C18.9737 26.3137 19.2011 27.0633 19.2011 27.8301C19.2011 28.8583 18.7927 29.8444 18.0656 30.5715C17.3385 31.2985 16.3524 31.707 15.3242 31.707ZM15.3242 26.5337C15.0678 26.5337 14.8172 26.6098 14.604 26.7522C14.3908 26.8946 14.2247 27.0971 14.1265 27.334C14.0284 27.5709 14.0027 27.8315 14.0528 28.083C14.1028 28.3344 14.2262 28.5654 14.4075 28.7467C14.5888 28.928 14.8198 29.0515 15.0713 29.1015C15.3228 29.1515 15.5834 29.1259 15.8203 29.0277C16.0572 28.9296 16.2596 28.7635 16.4021 28.5503C16.5445 28.3371 16.6205 28.0865 16.6205 27.8301C16.6174 27.4884 16.4794 27.1617 16.2366 26.9212C15.9938 26.6807 15.6659 26.5458 15.3242 26.5458V26.5337Z" fill="#4ACAE7"/>
</svg>
